{"glyphs":{":":{"x_min":0,"x_max":135,"ha":135,"o":"m 67 435 q 92 435 109 418 q 126 401 126 376 q 126 353 109 335 q 92 318 67 318 q 43 318 26 335 q 9 353 9 376 q 9 401 26 418 q 43 435 67 435 z m 67 110 q 92 110 109 93 q 126 76 126 52 q 126 28 109 11 q 92 -6 67 -6 q 43 -6 26 11 q 9 28 9 52 q 9 76 26 93 q 43 110 67 110 z"},"$":{"x_min":0,"x_max":281,"ha":281,"o":"m 124 802 l 149 802 l 149 763 q 172 763 192 758 q 212 753 244 739 l 255 734 l 255 635 q 219 660 198 668 q 177 676 149 677 l 149 482 q 215 380 240 311 q 264 241 264 169 q 264 89 232 46 q 201 3 149 -6 l 149 -84 l 124 -84 l 124 -6 q 71 -6 20 31 l 20 134 q 62 101 81 91 q 101 82 124 80 l 124 305 q 116 320 102 345 q 51 434 34 486 q 17 539 17 589 q 17 639 31 677 q 44 715 66 734 q 88 753 124 763 z m 124 670 q 109 661 100 643 q 90 625 90 606 q 90 588 99 568 q 107 548 124 525 z m 149 259 l 149 83 q 188 103 188 150 q 188 174 176 207 q 165 240 149 259 z"},"?":{"x_min":0,"x_max":167,"ha":167,"o":"m 10 782 q 40 802 71 802 q 108 802 133 773 q 158 743 158 683 q 158 620 125 492 q 101 399 91 333 q 85 296 85 236 l 43 236 q 41 302 41 351 q 41 447 57 564 q 64 622 64 642 q 64 667 57 678 q 49 688 38 688 q 24 688 10 675 z m 81 111 q 105 111 123 94 q 140 77 140 52 q 140 28 123 11 q 105 -6 81 -6 q 57 -6 40 11 q 23 28 23 52 q 23 77 40 94 q 57 111 81 111 z"},"<":{"x_min":0,"x_max":500,"ha":500,"o":"m 449 642 l 449 557 l 133 398 l 449 241 l 449 156 l 51 361 l 51 437 z"},"'":{"x_min":0,"x_max":250,"ha":250,"o":"m 83 802 l 168 802 l 168 684 l 148 548 l 104 548 l 83 684 z"},"=":{"x_min":0,"x_max":500,"ha":500,"o":"m 23 548 l 478 548 l 478 467 l 23 467 z m 23 332 l 478 332 l 478 250 l 23 250 z"},"a":{"x_min":0,"x_max":281,"ha":281,"o":"m 167 46 q 136 -6 103 -6 q 70 -6 49 31 q 15 89 15 266 l 15 340 q 15 484 76 561 q 123 619 203 619 l 246 619 l 246 160 q 246 117 252 100 q 258 83 270 72 l 216 -6 q 200 -1 189 9 q 178 20 167 46 z m 153 501 q 130 489 119 461 q 108 432 108 346 l 108 234 q 108 127 123 96 q 129 83 139 83 q 148 83 153 89 z"},"L":{"x_min":0,"x_max":208,"ha":208,"o":"m 27 796 l 134 796 l 134 106 l 197 106 l 197 0 l 27 0 z"},"3":{"x_min":0,"x_max":229,"ha":229,"o":"m 16 790 q 41 802 68 802 q 125 802 169 749 q 213 695 213 592 q 213 462 139 409 q 176 380 195 343 q 219 294 219 227 q 219 154 193 101 q 167 49 117 21 q 81 0 16 -6 l 16 105 q 59 111 83 141 q 106 171 106 228 q 106 292 82 322 q 57 353 16 355 l 16 443 q 42 443 61 456 q 80 470 92 505 q 104 540 104 582 q 104 647 86 671 q 68 695 43 695 q 33 695 16 689 z"},";":{"x_min":0,"x_max":135,"ha":135,"o":"m 68 436 q 93 436 110 418 q 127 401 127 377 q 127 353 110 336 q 93 319 68 319 q 44 319 27 336 q 10 353 10 377 q 10 401 27 418 q 44 436 68 436 z m 58 -6 q 35 1 22 18 q 10 34 10 54 q 10 78 27 94 q 44 111 69 111 q 94 111 111 93 q 128 75 128 44 q 128 0 100 -44 q 71 -87 11 -117 l 11 -73 q 46 -50 58 -6 z"},"J":{"x_min":0,"x_max":177,"ha":177,"o":"m 45 796 l 153 796 l 153 54 q 153 -11 134 -49 q 115 -87 78 -104 q 51 -117 1 -117 l 1 0 q 24 0 35 12 q 45 23 45 47 z"},"V":{"x_min":0,"x_max":302,"ha":302,"o":"m 6 796 l 116 796 l 155 336 l 187 796 l 296 796 l 200 -6 l 110 -6 z"},"\"":{"x_min":0,"x_max":250,"ha":250,"o":"m 148 802 l 233 802 l 233 684 l 214 548 l 169 548 l 148 684 z m 16 802 l 102 802 l 102 684 l 82 548 l 37 548 l 16 684 z"},"7":{"x_min":0,"x_max":219,"ha":219,"o":"m 12 796 l 213 796 l 121 -6 l 17 7 l 94 691 l 12 691 z"},"S":{"x_min":0,"x_max":240,"ha":240,"o":"m 13 116 q 38 105 59 105 q 87 105 104 124 q 121 142 121 178 q 121 207 115 233 q 103 286 70 369 q 37 452 21 520 q 13 559 13 606 q 13 708 52 755 q 92 802 156 802 q 186 802 225 790 l 225 684 q 202 695 184 695 q 156 695 137 672 q 118 650 118 607 q 118 579 125 551 q 137 500 166 424 q 202 329 218 253 q 227 215 227 172 q 227 86 185 40 q 143 -6 81 -6 q 53 -6 13 6 z"},"}":{"x_min":0,"x_max":271,"ha":271,"o":"m 16 802 q 68 800 93 789 q 117 777 136 751 q 155 726 160 694 q 168 646 168 605 l 168 523 q 168 454 177 424 q 186 395 201 384 q 217 373 250 373 l 250 296 q 217 295 201 285 q 186 274 177 243 q 168 212 168 134 l 168 47 q 168 -50 130 -92 q 92 -134 16 -135 l 16 -65 q 51 -62 66 -52 q 81 -42 86 -19 q 92 5 92 79 l 92 148 q 92 217 103 257 q 110 288 124 304 q 137 320 165 335 q 134 352 122 367 q 106 388 101 420 q 92 468 92 510 l 92 595 l 90 660 q 88 688 82 702 q 75 715 61 723 q 47 730 16 733 z"},"Z":{"x_min":0,"x_max":219,"ha":219,"o":"m 13 796 l 206 796 l 131 105 l 206 105 l 206 0 l 13 0 l 88 692 l 13 692 z"},"x":{"x_min":0,"x_max":250,"ha":250,"o":"m 17 613 l 106 613 l 127 384 l 150 613 l 241 613 l 164 318 l 241 0 l 146 0 l 127 239 l 106 0 l 10 0 l 89 318 z"},")":{"x_min":0,"x_max":198,"ha":198,"o":"m 14 -117 l 14 -69 q 35 -37 44 -10 q 58 35 64 101 q 73 187 73 287 q 73 396 64 567 q 62 620 58 644 q 51 678 39 710 q 31 729 14 755 l 14 802 q 57 764 76 735 q 110 681 134 597 q 165 485 165 343 q 165 227 142 119 q 122 29 82 -39 q 60 -75 14 -117 z"},"&":{"x_min":0,"x_max":344,"ha":344,"o":"m 74 385 q 44 464 32 519 q 21 574 21 624 q 21 710 58 756 q 96 802 143 802 q 187 802 220 763 q 252 724 252 655 q 252 604 236 548 q 219 491 178 413 l 218 308 q 230 352 234 430 l 327 430 q 325 374 309 300 q 293 225 271 168 l 333 0 l 218 0 l 201 47 q 158 -6 113 -6 q 74 -6 42 34 q 10 75 10 157 q 10 211 25 265 q 40 318 74 385 z m 140 701 q 115 669 115 622 q 115 573 136 522 q 159 564 159 625 q 159 673 140 701 z m 120 265 q 113 246 109 226 q 106 206 106 185 q 106 146 117 130 q 125 119 136 119 q 152 119 165 146 z"},"_":{"x_min":0,"x_max":500,"ha":500,"o":"m -6 -199 l -6 -135 l 506 -135 l 506 -199 z"},"v":{"x_min":0,"x_max":250,"ha":250,"o":"m 149 613 l 241 613 l 169 -6 l 83 -6 l 9 613 l 100 613 l 126 113 z"},"O":{"x_min":0,"x_max":323,"ha":323,"o":"m 18 388 q 18 618 67 722 q 105 802 162 802 q 188 802 214 783 q 239 763 261 713 q 282 662 293 577 q 305 493 305 396 q 305 153 246 53 q 211 -6 164 -6 q 98 -6 62 87 q 18 203 18 388 z m 162 680 q 149 658 143 633 q 137 607 134 541 q 129 436 129 376 q 129 241 140 181 q 147 143 162 114 q 176 143 182 169 q 188 195 190 261 q 193 383 193 439 q 193 564 183 619 q 176 655 162 680 z"},"(":{"x_min":0,"x_max":198,"ha":198,"o":"m 184 802 l 184 755 q 163 723 154 696 q 140 651 133 585 q 125 499 125 399 q 125 291 133 119 q 136 66 140 42 q 146 8 159 -24 q 166 -42 184 -69 l 184 -117 q 141 -79 122 -49 q 87 5 64 89 q 33 200 33 343 q 33 459 56 567 q 76 657 116 724 q 138 761 184 802 z"},"C":{"x_min":0,"x_max":260,"ha":260,"o":"m 249 11 q 228 -6 198 -6 q 116 -6 67 102 q 18 209 18 403 q 18 620 90 731 q 137 802 196 802 q 223 802 249 787 l 249 686 q 232 695 217 695 q 187 695 166 658 q 130 593 130 417 q 130 230 154 169 q 178 107 218 107 q 233 107 249 117 z"},"W":{"x_min":0,"x_max":490,"ha":490,"o":"m 13 796 l 121 796 l 154 333 l 198 796 l 293 796 l 337 327 l 371 796 l 477 796 l 381 -6 l 293 -6 l 246 436 l 198 -6 l 110 -6 z"},"A":{"x_min":0,"x_max":312,"ha":312,"o":"m 101 802 l 218 802 l 302 0 l 193 0 l 188 143 l 128 143 l 118 0 l 11 0 z m 162 670 l 153 670 q 148 503 146 457 l 134 247 l 180 247 l 173 409 z"},"f":{"x_min":0,"x_max":198,"ha":198,"o":"m 188 802 l 188 714 q 168 710 160 699 q 147 682 147 660 l 147 613 l 188 613 l 188 535 l 147 535 l 147 47 q 147 -15 136 -46 q 125 -77 95 -96 q 64 -116 15 -117 l 15 -16 q 34 -16 42 -4 q 54 12 54 62 l 54 535 l 15 535 l 15 613 l 54 613 l 54 654 q 54 705 71 740 q 89 775 120 791 q 143 802 188 802 z"},"Q":{"x_min":0,"x_max":323,"ha":323,"o":"m 264 -98 l 256 -98 q 215 -98 167 -58 q 93 5 55 106 q 18 208 18 392 q 18 641 78 744 q 112 802 162 802 q 223 802 258 717 q 305 604 305 398 q 305 303 294 223 q 283 144 263 91 q 250 59 226 27 q 255 0 283 0 q 288 0 295 0 z m 163 681 q 150 660 144 635 q 138 611 135 529 q 130 396 130 344 q 130 227 141 175 q 147 142 163 117 q 176 143 183 182 q 194 252 194 414 q 194 554 185 614 q 178 653 163 681 z"},"w":{"x_min":0,"x_max":385,"ha":385,"o":"m 11 613 l 104 613 l 122 194 l 151 613 l 234 613 l 264 198 l 284 613 l 375 613 l 303 -6 l 229 -6 l 194 387 l 157 -6 l 84 -6 z"},"-":{"x_min":0,"x_max":219,"ha":219,"o":"m 14 352 l 208 352 l 208 261 l 14 261 z"},"E":{"x_min":0,"x_max":219,"ha":219,"o":"m 26 796 l 209 796 l 209 690 l 134 690 l 134 439 l 209 439 l 209 336 l 134 336 l 134 104 l 209 104 l 209 0 l 26 0 z"},"s":{"x_min":0,"x_max":188,"ha":188,"o":"m 10 102 q 27 83 48 83 q 68 83 80 96 q 92 109 92 133 q 92 176 55 285 q 11 415 11 482 q 11 554 37 587 q 64 619 106 619 q 132 619 168 599 l 168 514 q 149 530 134 530 q 119 530 108 518 q 97 506 97 483 q 97 442 132 337 q 177 202 177 132 q 177 61 148 27 q 119 -6 71 -6 q 40 -6 10 10 z"},">":{"x_min":0,"x_max":500,"ha":500,"o":"m 51 642 l 449 437 l 449 361 l 51 156 l 51 241 l 367 398 l 51 557 z"},"l":{"x_min":0,"x_max":156,"ha":156,"o":"m 25 796 l 119 796 l 119 125 q 119 96 125 83 q 131 70 147 62 l 76 -6 q 51 2 38 21 q 25 41 25 76 z"},"8":{"x_min":0,"x_max":292,"ha":292,"o":"m 78 406 q 17 471 17 585 q 17 671 52 737 q 86 802 144 802 q 176 802 207 778 q 238 753 256 700 q 274 646 274 583 q 274 473 213 406 q 246 367 262 323 q 279 280 279 219 q 279 132 242 63 q 206 -6 147 -6 q 116 -6 84 19 q 53 44 33 100 q 13 155 13 219 q 13 283 30 327 q 47 371 78 406 z m 146 688 q 120 651 120 579 q 120 506 146 470 q 172 503 172 574 q 172 613 164 643 q 157 674 146 688 z m 146 342 q 120 309 120 229 q 120 151 146 120 q 172 148 172 231 q 172 304 146 342 z"},"\\":{"x_min":0,"x_max":250,"ha":250,"o":"m 179 -17 l -28 775 l 42 775 l 250 -17 z"},"e":{"x_min":0,"x_max":260,"ha":260,"o":"m 240 3 q 218 -6 190 -6 q 120 -6 67 62 q 15 130 15 304 l 15 375 q 15 515 57 577 q 85 619 131 619 q 188 619 217 569 q 245 519 245 448 q 245 363 211 313 q 176 263 114 243 q 115 167 146 124 q 169 94 201 94 q 215 94 240 106 z m 133 522 q 121 503 117 488 q 109 460 109 423 l 109 344 q 130 353 142 376 q 153 399 153 446 q 153 497 133 522 z"},"b":{"x_min":0,"x_max":271,"ha":271,"o":"m 25 796 l 119 796 l 119 602 q 134 619 161 619 q 184 619 204 603 q 224 587 236 550 q 255 494 255 421 l 255 300 q 255 147 207 74 q 158 0 72 0 l 25 0 z m 119 520 l 119 112 q 139 119 148 137 q 162 162 162 216 l 162 414 q 162 491 151 512 q 144 524 131 524 q 125 524 119 520 z"},"%":{"x_min":0,"x_max":458,"ha":458,"o":"m 337 802 l 382 802 l 128 -16 l 82 -16 z m 118 802 q 159 802 186 766 q 223 714 223 604 q 223 499 186 446 q 160 410 121 410 q 81 410 55 447 q 17 501 17 612 q 17 676 34 723 q 51 771 77 790 q 95 802 118 802 z m 121 731 q 110 716 105 695 q 99 668 99 611 q 99 513 121 484 q 142 510 142 607 q 142 668 135 696 q 131 716 121 731 z m 341 377 q 382 377 409 340 q 446 288 446 179 q 446 72 409 20 q 383 -17 344 -17 q 304 -17 278 21 q 240 75 240 185 q 240 286 278 340 q 305 377 341 377 z m 344 304 q 333 290 328 266 q 322 242 322 185 q 322 86 344 58 q 365 83 365 180 q 365 242 358 270 q 354 290 344 304 z"},"m":{"x_min":0,"x_max":417,"ha":417,"o":"m 112 574 q 131 600 146 610 q 161 619 181 619 q 223 619 247 574 q 273 604 284 610 q 298 619 316 619 q 348 619 367 595 q 391 564 391 507 l 391 0 l 298 0 l 298 496 q 298 512 292 520 q 287 527 278 527 q 273 527 267 522 q 261 517 255 507 l 255 0 l 162 0 l 162 496 q 162 512 155 521 q 150 527 143 527 q 137 527 131 522 q 125 517 118 507 l 118 0 l 25 0 l 25 517 q 25 541 10 554 l 64 619 q 100 606 112 574 z"},"#":{"x_min":0,"x_max":500,"ha":500,"o":"m 205 777 l 270 777 l 226 567 l 337 567 l 380 777 l 447 777 l 404 567 l 490 567 l 490 502 l 392 502 l 353 315 l 490 315 l 490 251 l 341 251 l 297 42 l 229 42 l 272 251 l 163 251 l 121 42 l 54 42 l 98 251 l 10 251 l 10 315 l 110 315 l 148 502 l 10 502 l 10 567 l 163 567 z m 215 502 l 177 315 l 286 315 l 325 502 z"},",":{"x_min":0,"x_max":135,"ha":135,"o":"m 62 -6 q 39 1 27 18 q 15 34 15 53 q 15 77 32 94 q 49 110 74 110 q 99 110 115 93 q 132 75 132 43 q 132 0 104 -43 q 76 -86 15 -117 l 15 -74 q 51 -50 62 -6 z"},"n":{"x_min":0,"x_max":281,"ha":281,"o":"m 67 619 q 96 610 114 576 q 135 603 149 611 q 163 619 181 619 q 212 619 234 593 q 256 566 256 512 l 256 0 l 163 0 l 163 503 q 163 514 156 521 q 150 528 141 528 q 136 528 130 524 q 125 520 120 512 l 120 0 l 27 0 l 27 503 q 27 539 8 552 z"},"h":{"x_min":0,"x_max":281,"ha":281,"o":"m 25 796 l 119 796 l 119 583 q 135 604 148 612 q 161 619 180 619 q 213 619 234 592 q 256 565 256 504 l 256 0 l 163 0 l 163 499 q 163 513 157 520 q 151 527 143 527 q 131 527 119 508 l 119 0 l 25 0 z"},"z":{"x_min":0,"x_max":198,"ha":198,"o":"m 14 613 l 188 613 l 111 71 l 188 71 l 188 0 l 11 0 l 88 541 l 14 541 z"},"B":{"x_min":0,"x_max":323,"ha":323,"o":"m 27 796 l 95 796 q 187 796 241 738 q 295 680 295 577 q 295 467 225 405 q 264 377 282 342 q 309 293 309 224 q 309 155 283 101 q 264 61 218 31 q 172 0 108 0 l 27 0 z m 134 682 l 134 458 q 188 483 188 569 q 188 621 167 654 q 153 678 134 682 z m 134 343 l 134 114 q 161 123 179 151 q 197 179 197 224 q 197 264 180 295 q 164 327 134 343 z"},"K":{"x_min":0,"x_max":323,"ha":323,"o":"m 27 796 l 134 796 l 134 445 q 153 464 161 479 q 177 514 185 571 q 192 627 192 729 l 192 796 l 300 796 l 300 675 q 300 585 278 511 q 263 461 232 421 q 264 387 282 322 q 300 257 300 118 l 300 0 l 192 0 l 192 102 q 192 193 184 260 q 175 326 159 352 q 151 367 134 374 l 134 0 l 27 0 z"},"R":{"x_min":0,"x_max":333,"ha":333,"o":"m 27 796 l 84 796 q 186 796 242 738 q 298 680 298 575 q 298 516 275 470 q 259 438 225 408 q 250 380 262 356 q 286 304 301 223 q 315 142 325 0 l 217 0 q 210 178 185 261 q 166 323 134 349 l 134 0 l 27 0 z m 143 682 l 143 452 q 169 463 184 494 q 199 524 199 567 q 199 611 184 641 q 169 670 143 682 z"},"T":{"x_min":0,"x_max":281,"ha":281,"o":"m 12 796 l 270 796 l 270 692 l 195 692 l 195 0 l 87 0 l 87 692 l 12 692 z"},"P":{"x_min":0,"x_max":312,"ha":312,"o":"m 27 796 l 61 796 q 148 796 194 771 q 240 745 270 690 q 300 634 300 564 q 300 505 278 454 q 257 403 215 370 q 186 346 134 330 l 134 0 l 27 0 z m 134 678 l 134 445 q 188 480 188 562 q 188 605 175 634 q 161 663 134 678 z"},"|":{"x_min":0,"x_max":260,"ha":260,"o":"m 92 -163 l 92 775 l 168 775 l 168 -163 z"},"t":{"x_min":0,"x_max":208,"ha":208,"o":"m 122 711 l 149 711 l 149 613 l 193 613 l 193 533 l 149 533 l 149 113 q 149 98 156 90 q 164 82 173 82 q 182 82 193 89 l 193 10 q 169 -6 145 -6 q 105 -6 81 21 q 56 49 56 99 l 56 533 l 9 533 l 9 561 q 50 603 122 711 z"},"M":{"x_min":0,"x_max":448,"ha":448,"o":"m 102 796 l 189 796 l 224 356 l 264 796 l 351 796 l 429 0 l 323 0 l 297 387 l 240 0 l 204 0 l 151 387 l 122 0 l 19 0 z"},"g":{"x_min":0,"x_max":271,"ha":271,"o":"m 246 619 l 246 15 q 246 -45 212 -81 q 177 -117 122 -117 q 99 -117 80 -111 q 60 -104 27 -87 l 57 -6 q 88 -25 110 -25 q 131 -25 142 -14 q 153 -3 153 15 l 153 41 q 130 10 104 10 q 72 10 51 47 q 15 111 15 286 q 15 414 38 483 q 61 552 103 586 q 145 619 204 619 z m 153 509 q 133 496 122 468 q 110 439 110 371 l 110 235 q 110 143 122 119 q 129 106 140 106 q 149 106 153 110 z"},"j":{"x_min":0,"x_max":156,"ha":156,"o":"m 77 802 q 100 802 115 786 q 131 771 131 748 q 131 726 115 710 q 100 694 77 694 q 55 694 39 710 q 23 726 23 748 q 23 770 39 786 q 55 802 77 802 z m 33 613 l 126 613 l 126 8 q 126 -50 84 -86 q 52 -114 -4 -117 l -4 -21 q 11 -20 20 -8 q 33 8 33 30 z"},"i":{"x_min":0,"x_max":135,"ha":135,"o":"m 67 802 q 90 802 106 786 q 122 770 122 748 q 122 725 106 709 q 90 693 67 693 q 45 693 29 709 q 13 725 13 747 q 13 770 30 786 q 46 802 67 802 z m 21 613 l 114 613 l 114 0 l 21 0 z"},"y":{"x_min":0,"x_max":250,"ha":250,"o":"m 9 613 l 102 613 l 127 195 l 149 613 l 241 613 l 174 31 q 165 -47 129 -82 q 94 -117 36 -117 q 26 -117 15 -117 l 15 -28 l 30 -29 q 50 -29 61 -19 q 72 -10 83 23 z"},"@":{"x_min":0,"x_max":802,"ha":802,"o":"m 513 633 l 589 633 l 536 318 q 524 250 524 230 q 524 217 531 210 q 539 203 550 203 q 577 203 615 230 q 653 257 679 317 q 706 376 706 447 q 706 528 672 595 q 639 662 572 698 q 504 735 427 735 q 340 735 262 690 q 184 645 142 558 q 100 472 100 367 q 100 265 140 187 q 181 109 258 66 q 334 24 423 24 q 477 24 530 39 q 583 55 619 76 q 644 91 677 121 l 763 121 q 731 78 704 56 q 652 15 581 -13 q 509 -41 421 -41 q 253 -41 144 73 q 34 186 34 372 q 34 565 146 684 q 259 802 425 802 q 525 802 607 760 q 689 717 731 635 q 772 553 772 457 q 772 372 745 308 q 718 243 682 205 q 646 167 602 144 q 559 121 520 121 q 490 121 471 138 q 452 155 447 188 q 417 155 387 138 q 357 121 326 121 q 271 121 227 175 q 182 229 182 330 q 182 427 214 505 q 246 583 291 615 q 335 648 380 648 q 419 648 447 629 q 474 609 501 563 z m 263 322 q 263 252 287 222 q 312 191 343 191 q 370 191 398 217 q 427 242 446 307 q 472 393 472 471 q 472 527 450 553 q 429 578 396 578 q 364 578 334 552 q 304 525 283 458 q 263 391 263 322 z"},".":{"x_min":0,"x_max":135,"ha":135,"o":"m 67 111 q 92 111 109 94 q 126 77 126 52 q 126 28 109 11 q 92 -6 67 -6 q 43 -6 26 11 q 9 28 9 52 q 9 77 26 94 q 43 111 67 111 z"},"p":{"x_min":0,"x_max":271,"ha":271,"o":"m 67 619 q 90 610 101 600 q 111 591 118 576 q 144 619 168 619 q 199 619 220 582 q 256 521 256 356 l 256 286 q 256 129 207 52 q 173 0 118 -6 l 118 -117 l 25 -117 l 25 511 q 25 536 4 552 z m 118 523 l 118 108 q 135 112 146 133 q 163 169 163 270 l 163 398 q 163 487 149 515 q 142 529 131 529 q 124 529 118 523 z"},"X":{"x_min":0,"x_max":312,"ha":312,"o":"m 12 796 l 121 796 l 156 605 l 192 796 l 301 796 l 211 395 l 301 0 l 192 0 l 156 189 l 121 0 l 12 0 l 103 395 z"},"*":{"x_min":0,"x_max":448,"ha":448,"o":"m 218 625 l 184 770 q 181 780 181 786 q 181 794 188 798 q 195 802 231 802 q 256 802 263 797 q 270 792 270 782 q 270 775 268 766 l 232 625 q 242 622 249 613 l 354 713 q 369 729 378 729 q 390 729 406 700 q 421 672 421 661 q 421 654 416 648 q 411 643 394 639 l 257 603 l 257 598 q 257 593 257 588 l 257 583 l 389 544 q 410 538 416 532 q 421 526 421 519 q 421 505 396 471 q 384 455 375 455 q 366 455 354 467 l 249 571 q 244 566 232 562 l 268 415 q 270 409 270 403 q 270 393 263 388 q 256 383 232 383 q 198 383 190 388 q 182 394 182 402 q 182 407 184 415 l 218 562 q 211 564 202 571 l 96 470 q 83 458 75 458 q 67 458 59 467 q 51 477 32 517 q 30 522 30 526 q 30 532 34 537 q 39 542 48 544 l 195 583 q 194 590 194 595 q 194 599 195 603 l 53 644 q 38 648 33 653 q 29 658 29 664 q 29 678 55 715 q 65 731 73 731 q 85 731 111 705 l 202 613 q 211 622 218 625 z"},"Y":{"x_min":0,"x_max":312,"ha":312,"o":"m 11 796 l 120 796 l 157 593 l 194 796 l 302 796 l 209 380 l 209 0 l 102 0 l 102 380 z"},"c":{"x_min":0,"x_max":198,"ha":198,"o":"m 188 10 q 183 5 167 -1 q 151 -6 139 -6 q 109 -6 83 14 q 56 34 42 76 q 15 152 15 270 l 15 359 q 15 505 62 572 q 95 619 147 619 q 163 619 188 613 l 188 518 l 186 520 q 175 526 165 526 q 143 526 129 503 q 108 469 108 359 l 108 277 q 108 143 126 109 q 138 87 157 87 q 171 87 188 100 z"},"!":{"x_min":0,"x_max":135,"ha":135,"o":"m 56 237 l 21 545 q 15 608 15 653 q 15 744 36 778 q 49 799 71 799 q 92 799 105 777 q 126 744 126 661 q 126 575 102 378 q 91 292 87 237 z m 71 111 q 95 111 112 94 q 129 77 129 53 q 129 28 112 11 q 95 -6 71 -6 q 47 -6 30 11 q 13 28 13 53 q 13 77 30 94 q 47 111 71 111 z"},"/":{"x_min":0,"x_max":250,"ha":250,"o":"m 0 -17 l 208 775 l 278 775 l 71 -17 z"},"[":{"x_min":0,"x_max":188,"ha":188,"o":"m 18 802 l 174 802 l 174 741 l 106 741 l 106 -57 l 174 -57 l 174 -117 l 18 -117 z"},"6":{"x_min":0,"x_max":312,"ha":312,"o":"m 241 802 l 305 715 q 265 664 236 611 q 207 559 182 492 q 240 442 269 380 q 298 318 298 236 q 298 163 277 105 q 256 46 224 20 q 192 -6 160 -6 q 125 -6 93 22 q 61 51 41 116 q 21 182 21 245 q 21 382 81 533 q 140 685 241 802 z m 146 376 q 128 321 128 247 q 128 156 162 117 q 193 146 193 232 q 193 288 181 321 q 168 353 146 376 z"},"r":{"x_min":0,"x_max":208,"ha":208,"o":"m 119 531 q 124 539 129 555 q 145 597 165 610 q 178 619 204 619 l 204 503 q 168 494 148 467 q 119 429 119 402 l 119 0 l 25 0 l 25 503 q 25 533 4 551 l 61 619 q 89 608 101 592 q 113 575 119 531 z"},"2":{"x_min":0,"x_max":240,"ha":240,"o":"m 16 760 q 44 785 63 794 q 82 802 104 802 q 157 802 193 758 q 229 714 229 614 q 229 539 214 435 q 196 312 151 105 l 236 105 l 236 0 l 16 0 q 64 181 95 375 q 118 523 118 596 q 118 644 104 663 q 89 682 67 682 q 40 682 16 657 z"},"{":{"x_min":0,"x_max":271,"ha":271,"o":"m 255 802 l 255 733 q 224 730 210 723 q 197 715 190 702 q 183 689 182 662 l 179 595 l 179 510 q 179 425 157 380 q 145 355 106 335 q 135 319 147 304 q 163 284 170 251 q 179 208 179 148 l 179 79 q 179 -17 193 -39 q 207 -61 255 -65 l 255 -135 q 179 -134 141 -92 q 103 -49 103 47 l 103 134 q 103 212 94 243 q 85 273 68 286 q 55 295 21 296 l 21 373 q 50 373 64 381 q 78 388 87 407 q 97 426 100 458 q 103 505 103 523 l 103 605 q 103 650 110 689 q 117 728 136 753 q 156 779 180 789 q 205 800 255 802 z"},"9":{"x_min":0,"x_max":312,"ha":312,"o":"m 78 -6 l 15 82 q 89 174 139 306 q 83 352 52 414 q 21 476 21 562 q 21 633 42 692 q 63 750 95 776 q 127 802 159 802 q 195 802 227 773 q 260 744 279 678 q 298 612 298 549 q 298 458 267 348 q 236 237 171 123 q 134 58 78 -6 z m 174 422 q 191 472 191 549 q 191 640 158 679 q 128 654 128 564 q 128 510 139 479 q 150 447 174 422 z"}," ":{"x_min":0,"x_max":162,"ha":162,"o":""},"I":{"x_min":0,"x_max":156,"ha":156,"o":"m 24 796 l 132 796 l 132 0 l 24 0 z"},"H":{"x_min":0,"x_max":323,"ha":323,"o":"m 27 796 l 134 796 l 134 439 l 189 439 l 189 796 l 296 796 l 296 0 l 189 0 l 189 336 l 134 336 l 134 0 l 27 0 z"},"4":{"x_min":0,"x_max":344,"ha":344,"o":"m 215 802 l 282 802 l 282 341 l 337 341 l 337 241 l 282 241 l 282 0 l 183 0 l 183 241 l 13 241 l 13 297 z m 183 508 l 114 341 l 183 341 z"},"~":{"x_min":0,"x_max":500,"ha":500,"o":"m 459 468 l 459 378 q 401 326 348 326 q 302 326 236 360 q 198 379 185 384 q 171 388 155 388 q 125 388 98 374 q 71 359 41 328 l 41 413 q 77 445 104 457 q 131 469 164 469 q 188 469 209 463 q 229 457 280 432 q 331 408 357 408 q 401 408 459 468 z"},"D":{"x_min":0,"x_max":323,"ha":323,"o":"m 27 796 l 59 796 q 119 796 163 774 q 206 753 238 703 q 270 654 288 579 q 306 504 306 400 q 306 294 287 212 q 269 129 233 78 q 207 41 176 23 q 135 0 77 0 l 27 0 z m 134 663 l 134 130 q 152 143 160 157 q 176 185 185 236 q 193 286 193 400 q 193 494 184 559 q 177 605 161 634 q 152 649 134 663 z"},"^":{"x_min":0,"x_max":500,"ha":500,"o":"m 132 411 l 42 411 l 214 802 l 285 802 l 458 411 l 370 411 l 249 703 z"},"0":{"x_min":0,"x_max":323,"ha":323,"o":"m 19 396 q 19 645 77 743 q 112 802 161 802 q 208 802 245 741 q 304 642 304 395 q 304 152 246 53 q 211 -6 165 -6 q 113 -6 78 52 q 19 152 19 396 z m 162 679 q 150 662 144 637 q 138 613 134 533 q 129 401 129 351 q 129 225 141 169 q 148 137 162 116 q 174 137 180 162 q 186 188 188 261 q 193 382 193 434 q 193 560 183 617 q 176 653 162 679 z"},"F":{"x_min":0,"x_max":219,"ha":219,"o":"m 27 796 l 210 796 l 210 691 l 134 691 l 134 440 l 210 440 l 210 337 l 134 337 l 134 0 l 27 0 z"},"`":{"x_min":0,"x_max":333,"ha":333,"o":"m 180 802 l 215 654 l 160 654 l 84 802 z"},"k":{"x_min":0,"x_max":271,"ha":271,"o":"m 25 796 l 119 796 l 119 380 q 132 394 142 422 q 151 450 151 481 l 151 613 l 244 613 l 244 494 q 244 437 228 389 q 217 355 198 343 q 213 331 220 318 q 234 293 243 257 q 254 204 254 130 l 254 0 l 162 0 l 162 125 q 162 217 146 260 q 137 283 119 294 l 119 0 l 25 0 z"},"u":{"x_min":0,"x_max":281,"ha":281,"o":"m 25 613 l 119 613 l 119 112 q 119 99 124 93 q 129 86 137 86 q 147 86 154 94 q 161 101 161 109 l 161 613 l 254 613 l 254 99 q 254 80 272 61 l 216 -6 q 196 0 185 10 q 174 21 168 38 q 147 11 132 2 q 117 -6 98 -6 q 67 -6 51 13 q 25 44 25 85 z"},"]":{"x_min":0,"x_max":188,"ha":188,"o":"m 20 802 l 178 802 l 178 -117 l 23 -117 l 23 -57 l 89 -57 l 89 741 l 20 741 z"},"U":{"x_min":0,"x_max":323,"ha":323,"o":"m 29 796 l 136 796 l 136 216 q 136 143 163 118 q 187 149 187 206 l 187 796 l 294 796 l 294 216 q 294 106 246 42 q 209 -6 163 -6 q 131 -6 99 18 q 67 43 51 90 q 29 155 29 216 z"},"o":{"x_min":0,"x_max":260,"ha":260,"o":"m 132 619 q 172 619 201 572 q 247 495 247 306 q 247 118 200 40 q 172 -6 132 -6 q 91 -6 63 41 q 17 117 17 306 q 17 495 63 572 q 91 619 132 619 z m 132 512 q 124 502 120 486 q 116 475 113 408 q 109 301 109 267 q 109 128 132 100 q 139 108 144 122 q 146 132 150 205 q 155 313 155 347 q 155 487 132 512 z"},"N":{"x_min":0,"x_max":323,"ha":323,"o":"m 29 796 l 127 796 l 194 381 l 200 381 l 188 796 l 294 796 l 294 0 l 200 0 l 127 441 l 123 441 l 135 0 l 29 0 z"},"+":{"x_min":0,"x_max":500,"ha":500,"o":"m 23 439 l 209 439 l 209 635 l 291 635 l 291 439 l 477 439 l 477 357 l 291 357 l 291 161 l 209 161 l 209 357 l 23 357 z"},"G":{"x_min":0,"x_max":323,"ha":323,"o":"m 305 0 q 281 -6 241 -6 q 189 -6 159 8 q 118 27 87 74 q 56 121 37 202 q 18 283 18 392 q 18 583 73 693 q 127 802 215 802 q 235 802 253 797 q 271 792 305 773 l 305 648 q 268 695 231 695 q 183 695 156 623 q 129 551 129 408 q 129 320 139 252 q 148 184 164 150 q 176 125 199 105 l 199 293 l 157 293 l 157 397 l 305 397 z"},"q":{"x_min":0,"x_max":271,"ha":271,"o":"m 248 619 l 248 -117 l 154 -117 l 154 12 q 129 -6 111 -6 q 74 -6 49 35 q 15 91 15 271 q 15 414 34 476 q 53 537 84 568 q 116 599 155 610 q 182 619 248 619 z m 154 502 q 132 492 121 463 q 110 435 110 341 l 110 217 q 110 130 124 103 q 131 89 142 89 q 151 89 154 95 z"},"d":{"x_min":0,"x_max":281,"ha":281,"o":"m 153 796 l 246 796 l 246 148 q 246 95 269 73 l 215 -6 q 178 5 165 48 q 143 13 130 3 q 118 -6 104 -6 q 71 -6 48 30 q 15 84 15 227 l 15 336 q 15 493 64 565 q 98 616 153 619 z m 153 507 q 135 501 125 481 q 108 446 108 367 l 108 240 q 108 127 122 98 q 128 85 138 85 q 143 85 147 88 q 152 90 153 93 z"},"1":{"x_min":0,"x_max":188,"ha":188,"o":"m 151 802 l 151 0 l 45 0 l 45 623 l 9 623 l 9 637 z"},"5":{"x_min":0,"x_max":229,"ha":229,"o":"m 23 796 l 225 796 l 225 692 l 131 692 l 131 442 q 174 408 195 365 q 217 321 217 251 q 217 185 194 128 q 177 86 145 53 q 113 20 73 3 q 50 -6 18 -6 l 18 106 q 53 116 73 141 q 105 182 105 253 q 105 314 83 347 q 62 379 23 390 z"}}}
